<?xml version="1.0" standalone="no"?>
<!DOCTYPE svg PUBLIC "-//W3C//DTD SVG 20010904//EN"
 "http://www.w3.org/TR/2001/REC-SVG-20010904/DTD/svg10.dtd">
<svg version="1.0" xmlns="http://www.w3.org/2000/svg"
 width="3508.000000pt" height="2480.000000pt" viewBox="0 0 3508.000000 2480.000000"
 preserveAspectRatio="xMidYMid meet">
<g transform="translate(0.000000,2480.000000) scale(0.100000,-0.100000)"
fill="#ff0000" stroke="none">
<path d="M17205 22430 c-841 -1293 -1534 -2351 -1540 -2352 -8 -2 -2171 2181
-3914 3951 l-447 453 -628 -1723 c-346 -948 -636 -1741 -645 -1761 l-16 -37
-2094 770 c-1152 423 -2097 767 -2100 763 -3 -3 -144 -1043 -312 -2310 -169
-1268 -308 -2306 -310 -2308 -2 -2 -1171 -379 -2597 -838 -1426 -459 -2592
-839 -2591 -844 0 -5 703 -900 1562 -1988 1387 -1759 1559 -1981 1548 -1998
-6 -10 -618 -674 -1359 -1475 -741 -801 -1347 -1462 -1347 -1467 0 -6 1297
-812 2883 -1791 1585 -979 2882 -1782 2882 -1785 0 -3 -423 -601 -940 -1330
-517 -729 -940 -1328 -940 -1332 0 -3 17 -4 38 -2 132 16 9142 824 9163 822
18 -2 286 -245 935 -848 500 -465 916 -850 925 -857 12 -10 257 55 1252 332
l1238 343 1682 -1370 c925 -754 1687 -1374 1692 -1379 7 -5 478 612 1239 1621
988 1309 1232 1627 1245 1621 56 -29 6213 -2832 6216 -2829 2 2 -170 823 -382
1826 -212 1002 -383 1825 -380 1828 3 3 681 57 1507 119 826 63 1508 115 1516
117 8 2 -422 589 -1116 1523 -892 1200 -1127 1522 -1117 1532 6 6 809 570
1782 1252 974 683 1774 1247 1779 1254 6 9 -328 488 -1097 1574 -609 858
-1107 1565 -1109 1570 -2 6 845 877 1882 1937 1037 1060 1886 1936 1888 1946
2 14 -2 20 -15 20 -60 0 -6536 350 -6540 353 -2 3 203 740 456 1638 439 1563
458 1634 437 1637 -20 3 -5916 -501 -5997 -513 l-36 -5 -2323 2345 c-1279
1290 -2324 2345 -2325 2345 0 0 -688 -1058 -1530 -2350z"/>
</g>
</svg>
